<svg xmlns="http://www.w3.org/2000/svg" width="16" height="16" fill="none" viewBox="0 0 24 24"><path fill="#fff" d="M12 0c4.609 0 8.276 2.623 10.154 6.842V3.333H24v6.82h-6.148V8.309h2.907C19.265 4.3 16.085 1.846 12 1.846 6.392 1.846 1.846 6.392 1.846 12S6.392 22.154 12 22.154c4.977 0 9.118-3.581 9.986-8.308h1.873C22.97 19.597 17.999 24 12 24 5.373 24 0 18.627 0 12S5.373 0 12 0"/><path fill="#fff" d="M9.387 15.333v-5.15l-1.09 1.13-.68-.71 1.92-1.94h1.02v6.67zm2.289-3.33c0-1.68.8-3.44 2.67-3.44s2.67 1.76 2.67 3.44-.8 3.45-2.67 3.45-2.67-1.77-2.67-3.45m4.15 0c0-1.27-.39-2.4-1.48-2.4s-1.48 1.13-1.48 2.4.39 2.41 1.48 2.41 1.48-1.14 1.48-2.41"/></svg>